<svg width="24" height="25" viewBox="0 0 24 25" fill="none" xmlns="http://www.w3.org/2000/svg">
<g id="chart-dots-2">
<path id="Vector" d="M3 3.53711V21.5371H21M21 3.53711L15 5.03711M14.113 7.18713L16.884 10.8821M16 13.0371L11 15.0371M7 15.5371C7 16.0675 7.21071 16.5762 7.58579 16.9513C7.96086 17.3264 8.46957 17.5371 9 17.5371C9.53043 17.5371 10.0391 17.3264 10.4142 16.9513C10.7893 16.5762 11 16.0675 11 15.5371C11 15.0067 10.7893 14.498 10.4142 14.1229C10.0391 13.7478 9.53043 13.5371 9 13.5371C8.46957 13.5371 7.96086 13.7478 7.58579 14.1229C7.21071 14.498 7 15.0067 7 15.5371ZM11 5.53711C11 6.06754 11.2107 6.57625 11.5858 6.95132C11.9609 7.3264 12.4696 7.53711 13 7.53711C13.5304 7.53711 14.0391 7.3264 14.4142 6.95132C14.7893 6.57625 15 6.06754 15 5.53711C15 5.00668 14.7893 4.49797 14.4142 4.1229C14.0391 3.74782 13.5304 3.53711 13 3.53711C12.4696 3.53711 11.9609 3.74782 11.5858 4.1229C11.2107 4.49797 11 5.00668 11 5.53711ZM16 12.5371C16 13.0675 16.2107 13.5762 16.5858 13.9513C16.9609 14.3264 17.4696 14.5371 18 14.5371C18.5304 14.5371 19.0391 14.3264 19.4142 13.9513C19.7893 13.5762 20 13.0675 20 12.5371C20 12.0067 19.7893 11.498 19.4142 11.1229C19.0391 10.7478 18.5304 10.5371 18 10.5371C17.4696 10.5371 16.9609 10.7478 16.5858 11.1229C16.2107 11.498 16 12.0067 16 12.5371Z" stroke="#0047CB" stroke-width="2" stroke-linecap="round" stroke-linejoin="round"/>
</g>
</svg>
