<svg width="24" height="25" viewBox="0 0 24 25" fill="none" xmlns="http://www.w3.org/2000/svg">
<g id="clock-plus">
<path id="Vector" d="M20.9841 13.0723C21.0926 11.2507 20.6448 9.43912 19.7001 7.87784C18.7554 6.31657 17.3584 5.07936 15.6943 4.33029C14.0303 3.58123 12.1779 3.3557 10.3828 3.68361C8.58761 4.01153 6.93455 4.8774 5.64282 6.16639C4.35108 7.45538 3.4817 9.10658 3.14997 10.901C2.81823 12.6955 3.03982 14.5484 3.78534 16.214C4.53086 17.8796 5.7651 19.2792 7.32436 20.2273C8.88362 21.1753 10.6942 21.6269 12.5161 21.5223M16 19.5374H22M19 16.5374V22.5374M12 7.53735V12.5374L15 15.5374" stroke="#0047CB" stroke-width="2" stroke-linecap="round" stroke-linejoin="round"/>
</g>
</svg>
